<!-- Source: cr0ybot/ingress-logos enlightened_alt, CC BY-NC-SA 3.0. Metadata removed. -->
<svg xmlns="http://www.w3.org/2000/svg" viewBox="0 0 720 960">
  <g fill="#03dc03">
    <path d="M334.093 495.086v440.951s18.092 2.063 31.129-18.723c18.79-29.96 43.76-82.378 71.22-124.815s43.685-57.416 47.43-111.087c3.744-53.67-45.005-85.359-45.005-85.359s6.11 11.674 10.908 37.344c9.896 52.944-17.562 101.438-38.902 120.718-19.854 17.938-33.094 34.58-33.094 34.58V532.883s53.459-8.118 54.919-56.167c-.001-.001-31.971 23.428-98.605 18.37Z"/>
    <path d="M601.827 461.8s-29.957-29.402-64.907-46.045c-14.352-6.834-25.519-.555-25.519-.555l-44.381 48.265c-7.767 11.095 2.773 29.958 16.643 46.6 11 13.2 23.3 24.409 27.738 45.491 2.533 12.031 2.219 38.833 2.219 38.833s13.314-6.657 22.746-28.849c5.499-12.939 23.854-36.337 31.066-44.381 11.408-12.725 26.629-33.285 34.395-41.607 10.513-8.322 0-17.752 0-17.752Zm-44.381 21.497c-3.422 3.232-17.197 20.11-17.197 20.11s-6.604 8.701-12.204.555c-6.104-8.876-18.308-21.081-18.308-21.081s-3.328-3.884-.555-9.986 18.307-21.081 18.307-21.081 7.767-3.329 14.424 1.664c6.657 4.993 17.753 14.424 17.753 14.424s5.271 8.322-2.22 15.395Z"/>
    <path d="M628.179 277.896c-8.482-7.59-40.991-43.27-54.302-53.989-8.414-6.775-24.075-22.328-33.439-32.815-12.082-13.531-27.511-19.433-27.511-19.433s-.416 21.636-7.489 34.95c-8.309 15.641-12.492 19.316-21.22 34.118-11.004 18.661-12.336 38.087-2.882 47.784l61.688 47.254s17.403 6.079 31.344-1.561c34.673-19 53.832-34.082 53.832-34.082s15.79-8.08-.021-22.226Zm-52.469 3.599s-7.844 7.875-13.609 13.875-13.967 3.968-13.967 3.968-24.689-14.713-28.41-20.289c-3.722-5.575-1.062-9.944-1.062-9.944s6.399-7.556 10.992-17.299c4.214-8.942 16.004-2.121 16.004-2.121s23.096 15.599 26.994 18.237c8.532 5.773 3.058 13.573 3.058 13.573Z"/>
    <path d="M225.698 399.666s36.612 49.374 101.522 49.374c71.009 0 121.492-59.914 121.492-59.914s-61.03 23.583-112.616 24.964c-62.133 1.664-110.398-14.424-110.398-14.424Z"/>
    <path d="M84.788 359.724s19.402 38.163 54.922 37.724c44.936-.555 57.141-31.067 99.303-44.936 55.163-18.145 109.38-19.61 161.436-.555 62.134 22.745 63.783 40.989 98.193 40.498 38.834-.555 44.382-25.519 44.382-25.519s-11.101-7.16-23.3-8.322c-23.301-2.219-42.718-26.628-68.791-41.053-23.703-13.112-66.017-40.498-128.705-43.271-60.451-2.675-93.756 20.526-118.72 33.286-24.965 12.76-53.258 39.388-75.448 48.264-16.458 6.284-43.272 3.584-43.272 3.584Z"/>
    <path d="M317.789 243.778V24.092s16.408-1.847 29.402 6.102c23.578 14.424 91.773 71.388 106.515 91.536 16.644 22.75 16.644 36.892 6.657 47.709-11.793 12.775-38.279 13.869-38.279 13.869s14.702-16.643 8.877-27.184c-5.52-9.987-12.905-14.945-28.016-21.358-26.826-11.387-28.016 1.242-28.016 1.242v74.483s6.799 8.189 28.848 23.855c21.08 14.979 11.096 30.79 11.096 30.79s-11.299-15.129-20.526-17.752c-9.438-2.683-19.417-3.605-19.417-3.605h-57.141Z"/>
  </g>
</svg>
