<!-- Source: cr0ybot/ingress-logos resistance_alt, CC BY-NC-SA 3.0. Metadata removed. -->
<svg xmlns="http://www.w3.org/2000/svg" viewBox="0 0 720 960">
  <g fill="#0088ff">
    <path d="M376.255 92.708c10.029 7.949 17.189 23.014 18.546 40.759h181.158v469.174L360 790.641l-215.959-188V133.466H325.2c1.355-17.745 8.517-32.81 18.546-40.759H106.69v545.069L360 858.292l253.31-220.516V92.708H376.255Z"/>
    <path d="M541.348 256.491v-89.892H401.144c-8.009-17.221-23.429-28.885-41.143-28.885-17.715 0-33.135 11.665-41.143 28.885H178.653v89.892L326.296 385.02v14.402h-21.824v39.344h21.824v158.868h-57.433v-32.62h35.378v-35.857h-88.915v91.439l88.915 77.405V673.83h22.055v55.777h15.776v16.934h35.858v-16.934h15.775V438.766h21.823v-39.344h-21.823V385.02l147.643-128.529ZM360 163.735c15.501 0 28.07 13.378 28.07 29.88 0 16.503-12.568 29.881-28.07 29.881-15.503 0-28.071-13.377-28.071-29.881 0-16.502 12.568-29.88 28.071-29.88Zm-52.344 156.004-91.458-79.618v-19.487h102.66c8.008 17.22 23.428 28.885 41.143 28.885 17.714 0 33.134-11.665 41.143-28.885h102.658v19.487l-91.457 79.618H307.656Z"/>
  </g>
</svg>
